<svg enable-background="new 0 0 56.69 62.93" height="62.93" viewBox="0 0 56.69 62.93" width="56.69" xmlns="http://www.w3.org/2000/svg"><g fill="#fff"><path d="m36.24 53.87c0-6.22 5.01-11.29 11.21-11.39.07-.78.1-1.57.1-2.35 0-10.82-6.19-22.25-20.24-22.25-5.85 0-9.95 2.09-12.48 4.71v-22.59h-14.83v61.07h13.09v-5.67c2.09 3.49 6.72 6.98 14.22 6.98 4.19 0 7.68-1.02 10.51-2.74-1-1.69-1.58-3.66-1.58-5.77zm-12.06-3.71c-5.11 0-9.25-4.48-9.25-10s4.14-10 9.25-10 9.25 4.48 9.25 10c0 5.53-4.14 10-9.25 10z"/><path d="m56.69 53.87c0 5-4.05 9.05-9.05 9.05s-9.05-4.05-9.05-9.05 4.05-9.05 9.05-9.05 9.05 4.05 9.05 9.05"/></g></svg>