<svg id="Outline" xmlns="http://www.w3.org/2000/svg" viewBox="0 0 463.96 464"><defs><style>.cls-1{fill:#75787b;}</style></defs><path class="cls-1" d="M408,424a8,8,0,0,0,4.37,7.17c1.13.58,27.61,14.54,27.61,48.86a8,8,0,0,0,16,0c0-34.24,26.37-48.22,27.6-48.86a8,8,0,0,0,0-14.28C482.49,416.28,456,402.32,456,368a8,8,0,0,0-16,0c0,34.32-26.48,48.28-27.58,48.85A8,8,0,0,0,408,424Zm40-22.07A72.31,72.31,0,0,0,465.92,424,72.31,72.31,0,0,0,448,446.1,72.31,72.31,0,0,0,430.08,424,72.31,72.31,0,0,0,448,401.9Z" transform="translate(-24.02 -24)"/><path class="cls-1" d="M99.61,80.86C98.49,80.28,72,66.32,72,32a8,8,0,0,0-16,0c0,34.32-26.49,48.28-27.58,48.85a8,8,0,0,0,0,14.29C29.52,95.72,56,109.68,56,144a8,8,0,0,0,16,0c0-34.24,26.37-48.22,27.6-48.86a8,8,0,0,0,0-14.28ZM64,110.1A72.31,72.31,0,0,0,46.08,88,72.31,72.31,0,0,0,64,65.9,72.31,72.31,0,0,0,81.92,88,72.31,72.31,0,0,0,64,110.1Z" transform="translate(-24.02 -24)"/><path class="cls-1" d="M173.61,291.58c-3.2-20.93-6.23-40.71-14.18-62.34a8,8,0,0,0-15,5.52c7.4,20.12,10.3,39.12,13.38,59.24,4.26,27.88,9.1,59.47,26.77,101.13a8,8,0,0,0,14.73-6.25c-16.89-39.81-21.36-69-25.68-97.3Z" transform="translate(-24.02 -24)"/><path class="cls-1" d="M151.92,192c0-16.24,3.27-28.16,9.57-34.47,3.7-3.71,8.41-5.51,14.43-5.51a8,8,0,0,0,0-16c-10.19,0-19.1,3.53-25.76,10.21-9.5,9.52-14.29,24.94-14.24,45.81a8,8,0,0,0,8,8h0a8,8,0,0,0,8-8Z" transform="translate(-24.02 -24)"/><path class="cls-1" d="M344,96.06h-.1c-14.84,0-33.87,7.67-50.66,14.44-11.65,4.69-23.69,9.54-29.27,9.56s-17.64-4.87-29.28-9.56c-16.79-6.77-35.82-14.44-50.66-14.44h-.11c-39.66.1-60.88,19.34-71.7,35.47-21.43,31.95-19.3,75-7.69,103.55,10.17,25,12.57,44.1,15.34,66.24,3.29,26.19,7,55.87,24.6,101.61,15.08,39.21,43.62,53.13,63.47,53.13,10.84,0,21-5.1,28.59-14.36,11.62-14.18,15.83-36.32,11.25-59.21-3.23-16.19-9.28-55.66,4.52-72.49,3.23-3.94,7.15-5.94,11.64-5.94h0c4.49,0,8.41,2,11.64,5.94,13.8,16.83,7.76,56.3,4.52,72.49-4.58,22.89-.37,45,11.25,59.21C299,451,309.12,456.06,320,456.06c19.85,0,48.39-13.91,63.47-53.13C401,357.2,404.74,327.51,408,301.32c2.78-22.14,5.17-41.25,15.35-66.24,11.61-28.53,13.73-71.6-7.7-103.55-10.82-16.13-32-35.37-71.69-35.47Zm64.58,133c-11,26.94-13.61,48-16.4,70.29-3.17,25.28-6.77,53.94-23.66,97.86-13,33.84-36.63,42.87-48.53,42.87-7.64,0-13-4.63-16.21-8.5-8.63-10.52-11.59-27.69-7.94-45.93C305.94,335,297.14,311,288,299.86c-6.24-7.61-14.76-11.8-24-11.8h0c-9.25,0-17.78,4.19-24,11.8-9.17,11.18-18,35.13-7.84,85.77,3.65,18.25.68,35.41-7.94,45.93-3.18,3.88-8.57,8.5-16.21,8.5-11.9,0-35.52-9-48.54-42.87-16.89-43.92-20.48-72.58-23.65-97.86C132.94,277,130.3,256,119.34,229c-11.85-29.1-9.31-65.53,6.16-88.6,12.59-18.77,32.26-28.32,58.45-28.38,11.77,0,29.27,7,44.75,13.27,14.23,5.74,26.53,10.7,35.2,10.73h.1c8.67,0,21-5,35.2-10.73,15.44-6.22,32.94-13.27,44.68-13.27H344c26.19.06,45.86,9.61,58.45,28.38,15.47,23.07,18,59.5,6.16,88.6Z" transform="translate(-24.02 -24)"/></svg>