<svg id="Outline" xmlns="http://www.w3.org/2000/svg" viewBox="0 0 497.14 496.15"><defs><style>.cls-1{fill:#75787b;}</style></defs><path class="cls-1" d="M-127.84,91c-2.54-11.4-9.27-20.12-17.69-27.72-2.53-2.29-3-4.13-1.19-7.2,3.37-5.72,6.41-11.65,9.28-17.65a7.38,7.38,0,0,0-3-10c-3.61-2-8-.75-10.35,3.06-1.05,1.68-1.89,3.5-2.82,5.27l-6.18,11.79c-23.07-21.16-48.95-17.77-64.65-7.87-19.18,12.1-24.25,28.69-17.49,58.23-20.28-1.47-38.12,4.09-51.78,19.42-14.06,15.77-15.95,34.27-9.71,54.32C-330,167-353.86,171.71-373.69,190c-20.53,18.9-24.26,42.81-17.62,69.19-26.68-7-50.32-2.84-69.2,17.46C-479,296.47-483.72,320.4-478.1,347c-20.09-5.74-38.51-4.11-54.29,9.88-15.33,13.59-20.73,31.36-19.59,51.67-22.24-7.85-41.89-5.27-55.73,13.84-16.88,23.31-13.19,46.4,5.24,68.07-5.21,2.73-10.21,5.32-15.17,7.95-5.42,2.87-7.24,7-5,11.22,2.13,4,6.44,4.91,11.74,2.21,6.66-3.39,13.27-6.9,21.32-11.11,2.62,3.11,5.09,6.75,8.23,9.66,19,17.6,47.24,17.8,66.1,0,9.19-8.66,20.1-16.32,22.28-30.24,19.78,7.71,39.13,7.74,55.73-4.77,15.64-11.78,32.78-23.58,34.91-46.34l3,.93q42.85,13.07,75-18.12c4.3-4.17,8.32-8.66,12.78-12.65,12.57-11.25,20.4-24.46,17.94-42.38,14.29,1.61,26.42-2.19,36.43-12,6.78-6.64,13.54-13.31,20.13-20.13a69.88,69.88,0,0,0,19.32-38.1,73.62,73.62,0,0,0-4.18-39c9.45-.61,17.66-3.43,24.25-9.94,5.69-5.62,11.46-11.16,16.93-17a56.79,56.79,0,0,0,14.9-30.95c1.7-11-.28-21.4-3.89-30.95,5.13-2.75,10.48-4.63,14.55-8a140.49,140.49,0,0,0,17.61-17.65C-127.33,120.8-124.35,106.56-127.84,91Zm-73.08-43c12.45-1,22.88,3.26,31.22,12.47.87,1,1.53,3.16,1,4.14-3.19,6.15-6.74,12.12-10.32,18.41-6.92-4.32-11-4.23-13.78-.15s-1.52,7.32,6,13.31L-202,120.82c-8.76-9.9-20-16.78-25.73-28.58C-237.48,71.9-223.94,49.75-200.92,47.92Zm-56.86,66.81c18.79-3.51,33.55,3.47,45.52,17.51a4,4,0,0,1,.2,3.73c-2,3.1-9.05,13.07-17.13,24.4l-14.18-13.45a7,7,0,0,0-9.9.26,7,7,0,0,0,.27,9.9l15.59,14.78c-9.14,12.73-18,24.89-21.17,29.18-8.3-7.84-17.31-14.7-24.25-23.24C-302,154.29-288.19,120.4-257.78,114.73ZM-374.45,216.88c9-19.57,25.69-29.17,46.61-31.19,19-1.83,35.38,4.3,48.73,18.15,3.23,3.34,6.66,6.5,10.4,10.15l-31.86,38.08c-3.28-3.95-6-7.67-9.18-11-4.1-4.3-8.44-4.66-11.77-1.45-3.55,3.42-3.11,7.65,1.38,12.13,3.29,3.29,6.7,6.47,10.61,10.22l-32,33.95c-9-8.52-18.69-15.91-26.06-25.16C-380.47,254.61-383.17,235.9-374.45,216.88ZM-462,308.43c12.4-38.47,57.44-49.66,86.91-21.92,7.25,6.82,14.07,14.09,21.4,21.47l-31.1,29.49c-3.63-3.62-7.09-7.1-10.58-10.54-4.35-4.28-8.87-4.81-12.2-1.48-3.49,3.48-3,7.63,1.5,12.14,3.16,3.15,6.49,6.13,10.32,9.73l-40.17,33.8C-460.85,361.31-471.51,338-462,308.43Zm-67.26,67.36c12.8-18.55,37.22-23,54.69-8.69,8.79,7.18,15.68,16.66,23.76,25.45l-25.29,19.05c-2.62-3.72-4.71-6.93-7.06-9.93-2.95-3.77-7.05-4.44-10.54-2s-4.23,6.58-1.72,10.56c2,3.22,4.33,6.29,6.61,9.56a6.74,6.74,0,0,1-1.2,1.57c-8.09,5.56-16.16,11.15-24.38,16.54-1,.67-3.34.83-4.16.16C-541.94,418.84-540.93,392.78-529.22,375.79ZM-586.3,481.46a4.35,4.35,0,0,1-3.82-.61c-16-12.78-17.6-37.45-3.61-52.37,10.67-11.39,29.41-12.46,42.09-1.71,7.56,6.41,14.23,13.85,21.78,21.3l-20.77,13c-4.38-4.4-6.65-12.93-15.26-7.88-4.52,2.65-4,6.17,1.7,15.91C-571.54,473.23-578.85,477.47-586.3,481.46Zm74.78,3.61a155.3,155.3,0,0,1-16.31,16.14c-14.93,12.25-37.77,8.49-48.75-7.71l21.05-12.06c3.81,4.21,6.84,11,14.27,6.08,4.06-2.68,3.74-6.65-.81-14L-519,459c2.42,2.5,4.92,4.91,7.21,7.5C-506.79,472.1-506.47,479.49-511.52,485.07ZM-423.3,442a249.66,249.66,0,0,1-18.8,18.58c-16.31,14.18-41.44,12.89-56.69-2.44-2.34-2.35-5-4.38-8-7l26.89-18.32c4.27,4.61,7.53,13.15,15.25,7.3,7.17-5.43.08-10.84-2.69-16.23,9.64-7.26,19.16-14.43,28.45-21.41,5.52,5.3,11.27,10.15,16.19,15.73A17.82,17.82,0,0,1-423.3,442Zm107.92-60c-7.51,8-15.24,15.88-23.47,23.13a55.69,55.69,0,0,1-76.1-2.33c-3.53-3.47-7.12-6.9-10.79-10.46L-385,358c3.34,3.55,6.52,7.18,10,10.55,3.64,3.56,8,3.74,11.12.79s3.07-7.58-.55-11.49c-1.58-1.71-3.21-3.39-4.95-4.94s-3.38-2.69-5.31-4.2l31.88-30.13c9.46,9.46,18.72,18.34,27.54,27.62A25.9,25.9,0,0,1-315.38,381.94Zm70.84-71.33c-7.38,8.95-16,17-24.55,24.85-10.37,9.46-25.73,8.69-35.72-1.13-8.9-8.74-17.74-17.55-27-26.73L-298.2,272c2.92,3.49,5.59,7.08,8.67,10.28,3.88,4,8.68,4.31,11.83,1.05s2.66-7.62-1-11.5c-1.6-1.69-3.26-3.34-4.95-4.94s-3.43-3.15-5.5-5l30.61-36.44C-227.45,247.48-223,284.51-244.54,310.61Zm55.45-103.06c-5.95,7.52-13.11,14.18-20.24,20.65a17.45,17.45,0,0,1-23,.32c-5.6-4.89-10.45-10.61-15.86-16.19,3.59-4.78,12.55-17.12,21.83-30l12.42,11.77a7,7,0,0,0,4.82,1.92,7,7,0,0,0,5.08-2.18,7,7,0,0,0-.27-9.9l-13.8-13.08c8.59-12,16.1-22.48,18.16-25.5C-178.58,162.51-173.9,188.35-189.09,207.55Zm39.11-83.4c-4.4,5-9.19,9.61-14,14.15-6.18,5.81-13.84,5.71-20.15.09-2.35-2.1-4.77-4.1-7.19-6.17l17-27.26c9,4.79,12.49,5,15.23,1.17,2.88-4.06,1.25-7.42-7.38-14.59l10-17.33C-139.68,85.94-136.67,109.17-150,124.15Z" transform="translate(623.58 -27.48)"/></svg>