<svg id="Capa_1" data-name="Capa 1" xmlns="http://www.w3.org/2000/svg" viewBox="0 0 512 423.11"><defs><style>.cls-1{fill:#75787b;}</style></defs><path class="cls-1" d="M178.22,420c-13.84-4.78-22-19.44-24.88-25.53a9,9,0,0,0-16.19,0h0c-2.86,6.09-11,20.75-24.88,25.53a8.95,8.95,0,0,0,0,16.91c13.85,4.77,22,19.44,24.88,25.52a9,9,0,0,0,16.19,0c2.87-6.08,11-20.74,24.88-25.52a8.95,8.95,0,0,0,0-16.91Zm-33,26.26a65.18,65.18,0,0,0-16.86-17.81,65,65,0,0,0,16.86-17.8,64.82,64.82,0,0,0,16.85,17.8A65,65,0,0,0,145.25,446.25Z" transform="translate(0 -44.45)"/><path class="cls-1" d="M364,159.85c-11.25-3.89-18-16.59-19.77-20.38a8.72,8.72,0,0,0-7.86-5h0a8.73,8.73,0,0,0-7.87,5h0c-1.79,3.8-8.51,16.5-19.77,20.38a8.69,8.69,0,0,0,0,16.43c11.26,3.89,18,16.59,19.77,20.39a8.73,8.73,0,0,0,7.87,5h0a8.72,8.72,0,0,0,7.86-5c1.79-3.8,8.52-16.5,19.77-20.39a8.69,8.69,0,0,0,0-16.43Zm-27.63,20.57a55.07,55.07,0,0,0-11.67-12.36,55.07,55.07,0,0,0,11.67-12.36,55.07,55.07,0,0,0,11.67,12.36A55.07,55.07,0,0,0,336.39,180.42Z" transform="translate(0 -44.45)"/><path class="cls-1" d="M453.45,131.42q-10-2.8-20.78-5.39c6.24-6.48,14-12.31,23.32-15.53a9.75,9.75,0,0,0,0-18.43c-23.13-8-36.57-32-41.28-42a9.65,9.65,0,0,0-8.82-5.59h0A9.68,9.68,0,0,0,397.06,50h0c-4.7,10-18.14,34.05-41.27,42a9.75,9.75,0,0,0,0,18.43,49.55,49.55,0,0,1,5.3,2.19,769.43,769.43,0,0,0-248.51,6.24c-19.42,3.66-37.6,7.86-54,12.48A80.76,80.76,0,0,0,0,209V337a22.36,22.36,0,0,0,22.34,22.33H68.25a22.18,22.18,0,0,0,11.23-3,23.11,23.11,0,0,0,15.47,10,7.51,7.51,0,0,0,2.45-14.82,8.13,8.13,0,0,1-6.82-8V264.68a32.43,32.43,0,1,1,64.86,0v78.73a8.18,8.18,0,0,1-8.17,8.17h-16.5a7.51,7.51,0,1,0,0,15h16.5a23.1,23.1,0,0,0,11.18-2.88,25.72,25.72,0,0,0,22.68,13.64h56.29a25.62,25.62,0,0,0,18.26-7.64,25.61,25.61,0,0,0,18.25,7.64h56.3a25.71,25.71,0,0,0,22.82-13.93,23,23,0,0,0,11.68,3.17h48.52a23.2,23.2,0,0,0,19.26-10.29,22.14,22.14,0,0,0,11.25,3.05h45.9A22.36,22.36,0,0,0,512,337V209a80.74,80.74,0,0,0-58.55-77.56ZM405.89,65.48c6.5,11.21,17.7,26.45,34.21,35.81-16.51,9.35-27.71,24.59-34.21,35.8-6.51-11.21-17.7-26.45-34.21-35.8C388.19,91.93,399.38,76.69,405.89,65.48ZM75.57,337a7.34,7.34,0,0,1-7.32,7.32H22.34A7.34,7.34,0,0,1,15,337V262.53c0-.49,0-1,0-1.45a21.68,21.68,0,0,1,9.86-17.19,23.48,23.48,0,0,1,21-2.43c18.26,6.75,28.23,17.28,29.65,31.31V337ZM248.1,351.65a10.69,10.69,0,0,1-10.68,10.68H181.13a10.69,10.69,0,0,1-10.68-10.68V260.31a38.83,38.83,0,0,1,77.65,0Zm173.32-8.24a8.18,8.18,0,0,1-8.17,8.16H364.73a8.18,8.18,0,0,1-8.17-8.16V264.68a32.43,32.43,0,0,1,64.86,0v78.73Zm68.24.93h-45.9a7.34,7.34,0,0,1-7.33-7.32V272.77c1.42-14,11.4-24.56,29.65-31.31a23.46,23.46,0,0,1,21,2.43A21.68,21.68,0,0,1,497,261.08c0,.48,0,75.94,0,75.94A7.34,7.34,0,0,1,489.66,344.34ZM497,232.51c-.53-.39-1.06-.77-1.61-1.13a38.49,38.49,0,0,0-34.51-4c-12.21,4.52-21.73,10.72-28.38,18.38a47.4,47.4,0,0,0-81.93-8.85,53.89,53.89,0,0,0-60.1-29.17,7.51,7.51,0,1,0,3.23,14.66,38.85,38.85,0,0,1,47.21,37.91v91.34a10.69,10.69,0,0,1-10.68,10.68H273.93a10.69,10.69,0,0,1-10.67-10.68V260.31a38.61,38.61,0,0,1,6.29-21.19A7.51,7.51,0,1,0,257,230.91c-.46.7-.89,1.41-1.32,2.13a53.79,53.79,0,0,0-94.59,3.35,47.42,47.42,0,0,0-81.56,9.37c-6.65-7.66-16.17-13.87-28.38-18.38a38.5,38.5,0,0,0-34.51,4c-.55.36-1.08.74-1.61,1.13V209a65.69,65.69,0,0,1,47.6-63.11c16-4.5,33.76-8.6,52.75-12.19a754.87,754.87,0,0,1,268.49-2.28,106,106,0,0,1,13.21,21.13,9.68,9.68,0,0,0,8.83,5.59h0a9.65,9.65,0,0,0,8.82-5.59,109.65,109.65,0,0,1,7.62-13.5c9.46,2.15,18.51,4.44,27.06,6.84A65.69,65.69,0,0,1,497,209Z" transform="translate(0 -44.45)"/></svg>