<svg id="Capa_1" data-name="Capa 1" xmlns="http://www.w3.org/2000/svg" viewBox="0 0 512 420"><defs><style>.cls-1{fill:#75787b;}</style></defs><path class="cls-1" d="M302,346H105a15,15,0,0,0,0,30H302a30,30,0,1,1-30,30,15,15,0,0,0-30,0,60,60,0,1,0,60-60ZM45,256H242a60,60,0,1,0-60-60,15,15,0,0,0,30,0,30,30,0,1,1,30,30H45a15,15,0,0,0,0,30Zm467-15a75,75,0,0,0-150,0,15,15,0,0,0,30,0,45,45,0,1,1,45,45H15a15,15,0,0,0,0,30H437A75.08,75.08,0,0,0,512,241ZM467,136a15,15,0,1,0-15-15A15,15,0,0,0,467,136ZM407,436a15,15,0,1,0,15,15A15,15,0,0,0,407,436Zm60-90a45,45,0,1,0,45,45A45.05,45.05,0,0,0,467,346Zm0,60a15,15,0,1,1,15-15A15,15,0,0,1,467,406ZM347,136a45,45,0,1,0-45-45A45.05,45.05,0,0,0,347,136Zm0-60a15,15,0,1,1-15,15A15,15,0,0,1,347,76Z" transform="translate(0 -46)"/></svg>