<svg id="Isolation_Mode" data-name="Isolation Mode" xmlns="http://www.w3.org/2000/svg" viewBox="0 0 507.97 503.83"><defs><style>.cls-1{fill:#75787b;}</style></defs><path class="cls-1" d="M408.11,401,241.24,245.32a57.36,57.36,0,0,0,9.85-42.13L391.6,161a60.93,60.93,0,1,0-4.81-16.07L246.28,187.12a58.57,58.57,0,0,0-85.56-24.34L103.64,98.56a58.86,58.86,0,1,0-12.57,11.18L148.14,174A58.61,58.61,0,0,0,169,265.36L133.79,388.67a58.76,58.76,0,1,0,16.15,4.61L185.14,270a57.47,57.47,0,0,0,44.63-12.37L396.65,413.31A58.9,58.9,0,1,0,408.11,401ZM444.84,94.3a42,42,0,1,1-42,42A42,42,0,0,1,444.84,94.3Zm-386.1,8.39a42,42,0,1,1,42-42A42,42,0,0,1,58.74,102.69ZM167.86,446.83a42,42,0,1,1-42-42A42,42,0,0,1,167.86,446.83Zm25.18-193a42,42,0,1,1,42-42A42,42,0,0,1,193,253.78Zm251.8,235a42,42,0,1,1,42-42A42,42,0,0,1,444.84,488.79Z" transform="translate(0 -2.07)"/></svg>