<svg enable-background="new 0 0 87.1 87.12" height="87.12" viewBox="0 0 87.1 87.12" width="87.1" xmlns="http://www.w3.org/2000/svg"><g fill="#fff"><path d="m86.88 25.61c-.2-4.63-.95-7.81-2.02-10.57-1.11-2.93-2.81-5.55-5.04-7.73-2.18-2.2-4.82-3.92-7.71-5.01-2.77-1.07-5.94-1.82-10.57-2.02-4.66-.23-6.14-.28-17.97-.28s-13.31.05-17.96.26c-4.63.2-7.81.95-10.57 2.02-2.92 1.11-5.54 2.81-7.72 5.04-2.21 2.18-3.93 4.81-5.02 7.71-1.07 2.77-1.82 5.94-2.03 10.57-.22 4.66-.27 6.14-.27 17.97s.05 13.31.26 17.95c.2 4.63.95 7.81 2.03 10.57 1.11 2.93 2.82 5.55 5.04 7.73 2.18 2.21 4.82 3.93 7.71 5.02 2.77 1.07 5.94 1.82 10.57 2.02 4.65.2 6.13.26 17.95.26s13.31-.05 17.95-.26c4.63-.2 7.81-.95 10.57-2.02 5.85-2.26 10.48-6.89 12.75-12.75 1.07-2.77 1.82-5.94 2.02-10.57.2-4.65.26-6.13.26-17.95s-.02-13.31-.23-17.96zm-7.84 35.57c-.19 4.25-.9 6.55-1.5 8.08-1.46 3.8-4.48 6.81-8.27 8.27-1.53.6-3.85 1.31-8.08 1.5-4.6.2-5.97.26-17.6.26s-13.02-.05-17.6-.26c-4.25-.19-6.55-.9-8.08-1.5-1.89-.7-3.61-1.8-5-3.25-1.45-1.41-2.55-3.11-3.25-5-.6-1.53-1.31-3.85-1.5-8.08-.2-4.6-.26-5.97-.26-17.6s.05-13.02.25-17.6c.19-4.25.9-6.55 1.5-8.08.7-1.89 1.8-3.61 3.27-5 1.41-1.45 3.11-2.55 5-3.25 1.53-.6 3.85-1.31 8.08-1.5 4.6-.2 5.97-.26 17.6-.26 11.64 0 13.02.05 17.6.26 4.25.19 6.55.9 8.08 1.5 1.89.7 3.61 1.8 5 3.25 1.45 1.41 2.55 3.11 3.25 5 .6 1.53 1.31 3.85 1.5 8.08.2 4.6.26 5.97.26 17.6s-.05 12.99-.25 17.58z"/><path d="m43.57 21.19c-12.36 0-22.38 10.02-22.38 22.38s10.02 22.38 22.38 22.38 22.38-10.02 22.38-22.38-10.03-22.38-22.38-22.38zm0 36.9c-8.02 0-14.52-6.5-14.52-14.52s6.5-14.52 14.52-14.52 14.52 6.5 14.52 14.52-6.51 14.52-14.52 14.52z"/><path d="m72.06 20.3c0 2.89-2.34 5.22-5.23 5.22s-5.22-2.34-5.22-5.22c0-2.89 2.34-5.22 5.22-5.22 2.89 0 5.23 2.34 5.23 5.22z"/></g></svg>