<svg id="Layer_1" data-name="Layer 1" xmlns="http://www.w3.org/2000/svg" viewBox="0 0 496.38 512"><defs><style>.cls-1{fill:#e1b6a5;}</style></defs><path class="cls-1" d="M410.55,18.75a64,64,0,0,0-97.41,82.33l-98.69,98.69-15.09-15.08L17.19,366.86a32,32,0,1,0,45.25,45.26L244.62,229.94l-15.09-15.08,98.69-98.69a64,64,0,0,0,82.33-97.42ZM47.34,397A10.66,10.66,0,1,1,32.26,382L169.19,245l15.09,15.08Zm152-152-15.08-15.09,15.08-15.08,15.09,15.08ZM395.47,94.17A42.66,42.66,0,1,1,408,64,42.38,42.38,0,0,1,395.47,94.17Z" transform="translate(-7.81 0)"/><path class="cls-1" d="M504,175.05,488.89,99.62A10.53,10.53,0,0,0,486,94.17a10.66,10.66,0,0,0-18,9.64l12.54,62.66H433.19a10.68,10.68,0,0,0-7.55,3.12L305,290.28l-15.08-15.09L107.69,457.37A32,32,0,1,0,153,502.62L335.12,320.45l-15.07-15.09L437.59,187.81h55.93A10.67,10.67,0,0,0,504,175.05ZM137.86,487.55a10.66,10.66,0,0,1-15.08-15.08L259.7,335.53l15.1,15.09Zm152-152L274.8,320.45l15.07-15.09L305,320.45Z" transform="translate(-7.81 0)"/></svg>