<svg id="Capa_1" data-name="Capa 1" xmlns="http://www.w3.org/2000/svg" viewBox="0 0 383.22 351.26"><defs><style>.cls-1{fill:#e0b6a6;}</style></defs><path class="cls-1" d="M202,1135.76c2-3.74,5.1-5.21,9.42-5.38,19-.76,34.45-16.39,35.53-35.42a14.09,14.09,0,0,1,2.42-7.13c1.69-2.35,4.62-2.82,7.47-1.73,3.44,1.31,5,3.93,5.06,7.53a37.53,37.53,0,0,0,36.39,36.84c3.08.1,5.65,1,7.34,3.64,3.22,5.14-.39,11.09-7,11.38-12.5.56-22.53,5.77-29.89,15.91a36.33,36.33,0,0,0-6.85,20.22c-.25,5.52-3.12,8.82-7.62,8.76s-7.18-3.3-7.42-8.58c-.93-20.07-16.18-35.45-36.2-36.21a9.74,9.74,0,0,1-8.68-5.34Zm52.38,18.69L270.85,1138l-16.46-16.44L238,1138Z" transform="translate(-202 -1085.54)"/><path class="cls-1" d="M459.1,1250c-42.44-16-71.69-45.24-87.93-88.34-16.22,43-45.41,72.29-88.54,88.58,43,16.22,72.3,45.47,88.54,88.65,1.41-3.47,2.42-6.35,3.73-9.09,2.56-5.39,5.15-10.78,8-16,2.56-4.78,6.9-6.17,10.85-3.81s4.76,6.49,2.13,11.08a125.52,125.52,0,0,0-16,47.08c-.65,5.06-.91,10.18-1.13,15.28-.24,5.69-3.07,9.17-7.7,9.06s-7.21-3.45-7.34-9c-1.24-55.2-35.49-101.85-87.76-119.39a124.36,124.36,0,0,0-36.34-6.25c-.75,0-1.5,0-2.25,0-5.1-.17-8.42-3.22-8.33-7.63s3.35-6.86,8.22-7.42c10.74-1.25,21.72-1.78,32.1-4.48,51.79-13.49,89.13-58.32,93.8-111.71.26-3,.45-6,.54-9,.17-6.09,2.91-9.56,7.63-9.49s7.3,3.46,7.41,9.33c.33,17.93,3.83,35.23,11.76,51.33,21.33,43.29,56,67.93,104.07,73.42,3.7.43,7.46.42,11.19.64,4.54.27,7.7,3.39,7.66,7.54s-3.21,7.34-7.8,7.39a128.62,128.62,0,0,0-63.83,17.34c-4.48,2.58-8.81,1.49-11-2.43s-.82-8.18,3.82-10.58C442.59,1257.93,450.78,1254.09,459.1,1250Z" transform="translate(-202 -1085.54)"/><path class="cls-1" d="M585.22,1362.39c.11,4.51-3.28,7.52-8.66,7.68a58.49,58.49,0,0,0-39,15.62c-12.68,11.6-19.19,26.13-19.62,43.33-.08,3.25-1,6.29-4.09,7.32a11.57,11.57,0,0,1-7.35-.28c-2.89-1.15-3.49-4.17-3.61-7.23-.89-21.8-10.61-38.58-29-50.18a57.27,57.27,0,0,0-29.79-8.59c-5-.12-8.24-2.88-8.46-7.12-.25-4.63,3.22-7.66,8.83-7.89,19.52-.79,35.25-9,46.94-24.62a58,58,0,0,0,11.54-33.76c.17-5.55,2.91-8.87,7.41-8.93s7.45,3.33,7.6,9.13a60,60,0,0,0,58.3,58.19C581.79,1355.21,585.11,1357.9,585.22,1362.39Zm-74.82,34.85a77.53,77.53,0,0,1,34.66-34.72c-15.53-7.85-26.68-19.2-34.68-34.54a77.77,77.77,0,0,1-34.55,34.58A77.64,77.64,0,0,1,510.4,1397.24Z" transform="translate(-202 -1085.54)"/><path class="cls-1" d="M418.3,1289.82a7.46,7.46,0,1,1-7.41-7.32A7.54,7.54,0,0,1,418.3,1289.82Z" transform="translate(-202 -1085.54)"/></svg>