<svg id="Capa_1" data-name="Capa 1" xmlns="http://www.w3.org/2000/svg" viewBox="0 0 512 511"><defs><style>.cls-1{fill:#e0b6a6;}</style></defs><g id="Rb7rhi.tif"><path class="cls-1" d="M799,1549.89H574c-6.72-2.12-11.09-6.76-14-13V1491c2.69-3.39,6-5.28,10.39-3.73s4.67,5.48,4.64,9.5c-.08,10.64.2,21.3-.11,31.94-.14,4.83,1.43,6.25,6.26,6.24,69.33-.12,138.66,0,208-.18a12.55,12.55,0,0,0,7.06-2.54,32.81,32.81,0,0,1,39.53,0,13.36,13.36,0,0,0,7.56,2.55q103.5.21,207,.13c6.67,0,6.68,0,6.68-6.63V1246.78c0-8.32.15-16.64-.13-25-.06-1.63-1.7-4.46-2.85-4.59-4.71-.52-9.52-.22-14.75-.22v291c0,8.73-2.13,10.82-10.93,10.82h-425c-8.42,0-10.63-2.23-10.63-10.62q0-142.49,0-285v-5.65a11.94,11.94,0,0,0-2.08-.61c-2.84,0-5.67-.08-8.5-.07-7.14,0-7.15,0-7.15,7.17q0,110.79,0,221.59c0,4-.26,7.82-4.81,9.36s-7.68-.47-10.24-4V1215.51c3.85-10.36,11.51-14.43,22.27-13.57a39.77,39.77,0,0,0,7.48-.07c1-.12,2.73-1,2.88-1.83.94-5,4.56-7.11,8.82-8.52,12-4,23.92-8.15,36.06-11.63,4.19-1.2,5.34-2.83,5.31-7-.17-31.11-.1-62.21-.09-93.32,0-10.64,3.1-13.27,13.46-10.48,10.59,2.85,21,6.32,31.49,9.52l5.06,1.56c0-11.41-.12-22,0-32.67.09-6.55,3.9-9.63,10-8.28,25,5.49,47.56,16,66.67,33.25,26,23.53,40.6,53.47,48.41,87.07,2.18,9.34,3.52,18.87,5.3,28.6.94-.61,1.78-1.07,2.53-1.65,51-39.41,109.21-57.54,173.2-58.72,8-.14,10.34,2.22,10.35,10.35,0,13.47.17,27-.08,40.41-.08,4,1,5.9,4.93,7.08a149.06,149.06,0,0,1,18.66,7c2.37,1.06,5.14,3.33,5.78,5.59,1,3.51,2.71,4,5.67,3.81,1.82-.14,3.67.1,5.49,0,10.76-.9,18.4,3.23,22.27,13.56v321.4c-2.94,6.19-7.28,10.86-14,13H833c-1.62-1.38-3.32-2.67-4.83-4.16-7.09-7-17.26-7-24.35,0C802.31,1547.21,800.61,1548.5,799,1549.89Zm195.29-119.15v-6.63q0-77.34,0-154.67a23.2,23.2,0,0,1,.62-6.41c1.07-3.68,3.92-5.3,7.66-5a6.62,6.62,0,0,1,6.45,5.89,33.33,33.33,0,0,1,.23,5.48q0,82.32,0,164.65c0,9.85-1.74,11.67-11.62,11.74a271.32,271.32,0,0,0-79.16,12.29c-8.35,2.6-16.54,5.76-24.8,8.67,44.3-6.83,87.45-2.45,130.56,10.86v-198.7c0-23.12,0-46.24-.07-69.36,0-1.71-.62-4.39-1.77-5-3.91-1.95-8.19-3.15-13.19-4.95,0,7.31.11,13.58,0,19.85-.11,4.25-2.46,6.81-6.76,7.22-4.13.4-7.29-2.2-8-6.56a35.61,35.61,0,0,1-.21-5.47q0-32.94,0-65.87v-6.09c-19.34.74-37.65,2.77-55.69,7-41.38,9.59-78.77,27.25-111.23,54.89a10.1,10.1,0,0,0-3.92,8.52q.15,135.72.08,271.43V1491C874.27,1451.7,931.1,1433,994.29,1430.74Zm-185.88-2.25c0-.15.1-1.28.1-2.41q0-101.3,0-202.57c0-19.31-.2-38.57-4.5-57.54-7.48-33-21-62.64-47.47-85.07-14.16-12-30.38-20-48.83-25v5.43q0,138.45-.08,276.91c0,3.79,1,5.38,4.83,6.45,29.07,8,53.83,23.17,72.28,47.16C793.7,1403.47,800.77,1416.53,808.41,1428.49Zm-200.68,49.09c63.06-19,124.71-19.82,186.13,8.18-1.08-1.92-1.34-2.53-1.72-3-34.64-48.49-79.83-81.79-138.41-95.8-10.58-2.53-11-3.08-11-14.11V1194.36a38.08,38.08,0,0,0-4.41.75c-8.26,2.53-16.47,5.26-24.78,7.63-4.53,1.29-5.9,3.69-5.89,8.47q.24,129.74.12,259.46Zm196.73-4.33,1-.5c-3.17-10.45-5.76-21.13-9.62-31.33-16.51-43.75-46.7-72.66-92.83-83.86-9.78-2.37-10.28-3-10.28-13.12V1164.36c0-21.12,0-42.24-.09-63.35,0-1.7-.77-4.48-1.9-4.92-10.63-4.12-21.41-7.84-32.59-11.84-.19,2.28-.37,3.42-.37,4.56q0,139.68-.07,279.35c0,3.25,1,4.47,4.23,5.31,48.65,12.58,89.26,38.3,122.59,75.61C791.49,1456.86,797.84,1465.18,804.46,1473.25Zm-196.08,30.3H793.54l.45-1.46c-11-4.38-21.88-9.45-33.19-13-48.63-15.35-97.15-12.5-145.43,2-8.28,2.49-8.27,2.53-7.47,11.29A5.17,5.17,0,0,0,608.38,1503.55Zm415.52.12c1-10,1.08-10.32-8-12.7-11.73-3.09-23.5-6.24-35.44-8.32-41.16-7.17-81.62-4.58-120.9,10.41-7.33,2.8-14.37,6.37-21.54,9.59l.41,1Z" transform="translate(-560 -1038.89)"/></g></svg>