<svg id="Layer_1" data-name="Layer 1" xmlns="http://www.w3.org/2000/svg" viewBox="0 0 392.7 511"><defs><style>.cls-1{fill:#dfb5a5;}</style></defs><path class="cls-1" d="M450.39,455.64,405.74,411c6.63-9.81,4.09-22.73,6.64-30.61,2.49-7.66,12.63-16.86,12.63-29.44s-10.14-21.79-12.63-29.44c-3.81-11.74,3.41-30.32-20.15-40.92V24.7A24.73,24.73,0,0,0,367.53,0H84.58a24.73,24.73,0,0,0-24.7,24.7V400.85a24.73,24.73,0,0,0,24.7,24.7h138.7l-30.09,30.09a7.5,7.5,0,0,0,4,12.66l32.17,5.85,4.33,30.42a7.49,7.49,0,0,0,12.7,4.24l59.54-59.54c1.81-.38,3.59-.81,5.3-1.24,13.67-3.4,12.65-1.63,26.5,1.24C400.12,510.56,396.86,511,402.52,511a7.49,7.49,0,0,0,7.41-6.43l4.33-30.42,32.18-5.85A7.49,7.49,0,0,0,450.39,455.64ZM74.85,400.85V24.7A9.75,9.75,0,0,1,84.58,15h283a9.74,9.74,0,0,1,9.73,9.73V273.5c-6.29-4.94-12.1-17-23.57-20.75s-23.27,3-31.9,3c-10,0-23.39-8.68-36.75-.76-8.63,5.13-13.58,14.82-19.23,18.94-6.94,5.05-21.08,6.5-28.15,17.27-6.39,9.74-3.95,22.57-6.47,30.34-2.47,7.61-12.62,16.9-12.62,29.44.52,2-1.59,5.6,7.87,20.61,5.13,8.14,5.51,9.17,6.22,19.25.49,6.88,1.06,13.82,4.91,19.78h-153A9.74,9.74,0,0,1,74.85,400.85Zm171.51,86.78-3-20.94a7.46,7.46,0,0,0-6.07-6.3l-23.43-4.27,35.66-35.66c14.36,7,13.73,3.39,23.35,14.92,4,4.76,7.91,9.4,13.45,12.26ZM294.84,435c-4.52-1.22-8.75-7.33-13.07-12.29-12.64-14.51-25.42-12.52-31.15-19.59-4.15-5.22-1.9-17.23-5.19-27.36-3.67-11.31-13.71-19-11.54-27.32.87-3.34,3.35-7.15,5.22-10.12,6.41-10.17,7.59-13.46,8.48-26.17,1.1-15.54,2.53-14.75,17.68-21.13,9.17-3.87,12.4-6.86,18.85-14.6,8.75-10.5,10-11.37,23.46-8,12.56,3.12,16.34,3,28.42,0,13.32-3.31,14.33-2.91,23.74,8.36,7.6,9.11,10.71,11.12,22,15.65,3.79,1.53,9.25,3.59,11.49,6.68,3.8,5.22,1.74,17.14,5,27.06,3.16,9.73,11.89,17.92,11.89,24.81s-8.72,15.05-11.89,24.81c-1.5,4.62-1.84,9.39-2.17,14-1,13.55-1.86,14.73-14.46,19.81C369.78,414.29,367,416.39,359,426c-8.67,10.4-10.1,10.72-23,7.51C314.58,428.18,302.27,437,294.84,435Zm111.43,25.4a7.45,7.45,0,0,0-6.07,6.3l-3,20.94-40-40c7.05-3.73,11-9.52,15.92-15.18,6.79-7.77,9.33-6.35,20.88-12l35.66,35.66Z" transform="translate(-59.88)"/><path class="cls-1" d="M128,73.56h196.2a7.49,7.49,0,0,0,0-15H128a7.49,7.49,0,1,0,0,15Z" transform="translate(-59.88)"/><path class="cls-1" d="M128,132.24h196.2a7.49,7.49,0,0,0,0-15H128a7.49,7.49,0,1,0,0,15Z" transform="translate(-59.88)"/><path class="cls-1" d="M128,190.93h196.2a7.49,7.49,0,0,0,0-15H128a7.49,7.49,0,1,0,0,15Z" transform="translate(-59.88)"/><path class="cls-1" d="M185.47,293.32H128a7.49,7.49,0,1,0,0,15h57.51a7.49,7.49,0,0,0,0-15Z" transform="translate(-59.88)"/><path class="cls-1" d="M185.47,352H128a7.49,7.49,0,1,0,0,15h57.51a7.49,7.49,0,0,0,0-15Z" transform="translate(-59.88)"/><path class="cls-1" d="M383.27,350.94a61.48,61.48,0,0,0-117.16-26.07,7.48,7.48,0,1,0,13.55,6.35,46.51,46.51,0,1,1,42.13,66.23,46.26,46.26,0,0,1-46.3-42.15,7.49,7.49,0,0,0-14.91,1.38,61.48,61.48,0,0,0,122.69-5.74Z" transform="translate(-59.88)"/></svg>