<svg id="Capa_1" data-name="Capa 1" xmlns="http://www.w3.org/2000/svg" viewBox="0 0 512 450.6"><defs><style>.cls-1{fill:#e0b6a6;}</style></defs><path class="cls-1" d="M211.77,835.6H103.3V760.27a40.68,40.68,0,0,0-40.63-40.64H-219a40.68,40.68,0,0,0-40.63,40.64V872a7.5,7.5,0,0,0,7.5,7.5,7.5,7.5,0,0,0,7.5-7.5V760.27A25.66,25.66,0,0,1-219,734.63H62.67A25.66,25.66,0,0,1,88.3,760.27v198.8A25.66,25.66,0,0,1,62.67,984.7H-99.57a15.67,15.67,0,0,0-11.16,4.62l-49.7,49.7a.68.68,0,0,1-.85.17.67.67,0,0,1-.49-.72v-38a15.8,15.8,0,0,0-15.78-15.78H-219a25.66,25.66,0,0,1-25.63-25.63V902a7.5,7.5,0,0,0-7.5-7.5,7.5,7.5,0,0,0-7.5,7.5v57.12A40.68,40.68,0,0,0-219,999.7h41.42a.78.78,0,0,1,.78.78v38a15.73,15.73,0,0,0,9.75,14.58,15.67,15.67,0,0,0,6.05,1.21,15.74,15.74,0,0,0,11.15-4.63l39.32-39.32V1075a40.68,40.68,0,0,0,40.63,40.63H21a7.5,7.5,0,1,0,0-15H-69.87A25.66,25.66,0,0,1-95.5,1075V999.7H62.67a40.68,40.68,0,0,0,40.63-40.63V850.6H211.77a25.66,25.66,0,0,1,25.63,25.63V1075a25.66,25.66,0,0,1-25.63,25.63H170.35a15.8,15.8,0,0,0-15.78,15.78v38a.79.79,0,0,1-1.34.55l-49.7-49.7a15.67,15.67,0,0,0-11.16-4.62H51a7.5,7.5,0,0,0,0,15h41.4a.75.75,0,0,1,.55.23l49.7,49.7a15.79,15.79,0,0,0,26.95-11.16v-38a.78.78,0,0,1,.78-.78h41.42A40.68,40.68,0,0,0,252.4,1075V876.23a40.68,40.68,0,0,0-40.63-40.63Z" transform="translate(259.6 -719.63)"/><path class="cls-1" d="M-27.67,1041.9A24.1,24.1,0,0,0-3.6,1066a24.1,24.1,0,0,0,24.07-24.07A24.1,24.1,0,0,0-3.6,1017.83,24.1,24.1,0,0,0-27.67,1041.9Zm33.14,0A9.08,9.08,0,0,1-3.6,1051a9.08,9.08,0,0,1-9.07-9.07,9.07,9.07,0,0,1,9.07-9.06A9.07,9.07,0,0,1,5.47,1041.9Z" transform="translate(259.6 -719.63)"/><path class="cls-1" d="M-102.22,942.5a24.1,24.1,0,0,0,24.07,24.07A24.1,24.1,0,0,0-54.08,942.5a24.1,24.1,0,0,0-24.07-24.07,24.1,24.1,0,0,0-24.07,24.07Zm33.14,0a9.08,9.08,0,0,1-9.07,9.07,9.08,9.08,0,0,1-9.07-9.07,9.08,9.08,0,0,1,9.07-9.07,9.08,9.08,0,0,1,9.07,9.07Z" transform="translate(259.6 -719.63)"/><path class="cls-1" d="M-54.08,861.87a57.17,57.17,0,0,0,33-55.91,57.35,57.35,0,0,0-53-53.05,57.4,57.4,0,0,0-43,15.24A57.36,57.36,0,0,0-135.35,810,24.09,24.09,0,0,0-111.28,834,24.08,24.08,0,0,0-87.22,810a8.85,8.85,0,0,1,2.89-6.63,9.13,9.13,0,0,1,6.87-2.42,9.27,9.27,0,0,1,8.35,8.36,9.13,9.13,0,0,1-5.6,9.09,44.4,44.4,0,0,0-27.51,41.3v16.56A24.09,24.09,0,0,0-78.15,900.3a24.09,24.09,0,0,0,24.06-24.07V861.87Zm-8-12.85a11.37,11.37,0,0,0-7,10.65v16.56a9.08,9.08,0,0,1-9.07,9.07,9.08,9.08,0,0,1-9.07-9.07V859.67A29.47,29.47,0,0,1-69,832.24a24.09,24.09,0,0,0,14.87-24A24.4,24.4,0,0,0-76.43,786q-.85-.06-1.71-.06a23.83,23.83,0,0,0-16.42,6.47,23.81,23.81,0,0,0-7.66,17.6,9.06,9.06,0,0,1-9.06,9.06,9.07,9.07,0,0,1-9.07-9.06,42.37,42.37,0,0,1,13.41-30.86,42.34,42.34,0,0,1,31.77-11.24A42.3,42.3,0,0,1-36,807a42.21,42.21,0,0,1-26.07,42Z" transform="translate(259.6 -719.63)"/><path class="cls-1" d="M169.57,1041.9A24.07,24.07,0,1,0,145.5,1066,24.09,24.09,0,0,0,169.57,1041.9Zm-33.14,0a9.07,9.07,0,1,1,9.07,9.07A9.07,9.07,0,0,1,136.43,1041.9Z" transform="translate(259.6 -719.63)"/><path class="cls-1" d="M71,1066a24.07,24.07,0,1,0-24.07-24.07A24.1,24.1,0,0,0,71,1066Zm0-33.14a9.07,9.07,0,1,1-9.07,9.07A9.08,9.08,0,0,1,71,1032.83Z" transform="translate(259.6 -719.63)"/></svg>