<svg id="Layer_1" data-name="Layer 1" xmlns="http://www.w3.org/2000/svg" viewBox="0 0 512 512"><defs><style>.cls-1{fill:#e1b6a5;}</style></defs><path class="cls-1" d="M413.84,257.39h22.3a37.81,37.81,0,1,0,0-15h-22.3a158.4,158.4,0,0,0-41.27-99.47l40.17-40.16a48,48,0,1,0-10.61-10.61L362,132.32A158.4,158.4,0,0,0,262.5,91.05V68.75a37.8,37.8,0,1,0-15,0v22.3A158.4,158.4,0,0,0,148,132.32L107.87,92.16a47.86,47.86,0,0,0-12-67.88,7.5,7.5,0,0,0-8.39,12.44,32.9,32.9,0,1,1-27.37-4.37A7.51,7.51,0,0,0,56,17.91a47.91,47.91,0,1,0,41.23,84.85l40.16,40.16a158.4,158.4,0,0,0-41.27,99.47H73.86a37.8,37.8,0,1,0,0,15h22.3a158.4,158.4,0,0,0,41.27,99.47L97.26,397a48,48,0,1,0,10.61,10.61L148,367.46a158.4,158.4,0,0,0,99.47,41.27V431a37.8,37.8,0,1,0,15,0v-22.3A158.4,158.4,0,0,0,362,367.46l40.16,40.16a47.9,47.9,0,1,0,86.65,28.14,48.16,48.16,0,0,0-2.45-15.18,7.5,7.5,0,1,0-14.23,4.74,32.92,32.92,0,1,1-31.23-22.47,32.75,32.75,0,0,1,12,2.27,7.5,7.5,0,0,0,5.49-14A47.86,47.86,0,0,0,412.74,397l-40.16-40.16a158.44,158.44,0,0,0,41.26-99.47Zm59.35-30.31a22.81,22.81,0,1,1-22.8,22.81A22.83,22.83,0,0,1,473.19,227.08Zm-32.32-196A32.91,32.91,0,1,1,408,64,33,33,0,0,1,440.87,31.11Zm-208.68.58A22.81,22.81,0,1,1,255,54.5a22.84,22.84,0,0,1-22.81-22.81ZM36.8,272.69a22.81,22.81,0,1,1,22.81-22.8A22.83,22.83,0,0,1,36.8,272.69ZM255,105.87c79.41,0,144,64.6,144,144s-64.61,144-144,144-144-64.6-144-144,64.6-144,144-144ZM69.13,468.67A32.91,32.91,0,1,1,102,435.76,32.95,32.95,0,0,1,69.13,468.67Zm208.67-.59a22.8,22.8,0,1,1-22.8-22.8A22.83,22.83,0,0,1,277.8,468.08Z" transform="translate(1 6.11)"/><path class="cls-1" d="M170.15,342.24H237.5a7.5,7.5,0,0,0,0-15H220.07v-12.7a7.5,7.5,0,0,0-15,0v12.7H177.65V290.3a32.94,32.94,0,0,1,32.9-32.91h88.9a32.94,32.94,0,0,1,32.9,32.91v36.94H304.92v-12.7a7.5,7.5,0,0,0-15,0v12.7H272.5a7.5,7.5,0,0,0,0,15h67.35a7.5,7.5,0,0,0,7.5-7.5V290.3a48,48,0,0,0-47.9-47.91h-5.57a58,58,0,1,0-77.76,0h-5.57a48,48,0,0,0-47.9,47.91v44.44a7.5,7.5,0,0,0,7.5,7.5ZM212,199.38a43,43,0,1,1,43,43,43.06,43.06,0,0,1-43-43Z" transform="translate(1 6.11)"/></svg>