<svg id="Modo_de_isolamento" data-name="Modo de isolamento" xmlns="http://www.w3.org/2000/svg" viewBox="0 0 459.42 82.62"><defs><style>.cls-1{fill:#fff;}</style></defs><path class="cls-1" d="M293.12,293.24v7.28c-3.37,2-9.12,3.27-14.34,3.27-11.08,0-18.46-7.07-18.46-17.67s7.38-17.66,18.46-17.66c5.22,0,11,1.31,14.34,3.27-.05.1-.16.21-.16.31l.16-.31V279h-.47c-.21-.58-.53-1.42-.74-2-1.48-4-5-7-8.76-7.49a35.21,35.21,0,0,0-4.43-.32c-9.12,0-15.24,6.75-15.24,16.93s6.12,16.93,15.24,16.93a30.59,30.59,0,0,0,3.17-.16,12.33,12.33,0,0,0,10-7.64l.74-2Zm-.16,6.91.21.37Z" transform="translate(-260.32 -256.33)"/><path class="cls-1" d="M311.2,269.3l-.58.05c-2.37.11-3.37,1.37-3.37,4.06v29.38H316c3.64,0,5.9-1.59,7.54-5.22l1.21-2.69s.69.37.63.42c-.42,2.37-.95,5.48-1.37,7.86H324l-.06.36H300.34v-.58l.58-.05c2.37-.1,3.37-1.37,3.37-4.06V273.41c0-2.69-1-4-3.37-4.06l-.58-.05v-.58H311.2Z" transform="translate(-260.32 -256.33)"/><path class="cls-1" d="M344.73,303.52H333.87v-.58l.58-.05c2.37-.1,3.37-1.37,3.37-4.06V273.41c0-2.69-1-4-3.37-4.06l-.58-.05v-.58h10.86v.58l-.58.05c-2.37.11-3.37,1.37-3.37,4.06v25.42c0,2.69,1,4,3.37,4.06l.58.05Zm-9-36.65s3.12-5.53,4.75-7.64a21.67,21.67,0,0,1,2-2.9c.48,0,1.53.73,1.53,1.05a19.78,19.78,0,0,1-2.21,2.9c-1.64,2.11-5.8,6.8-5.8,6.8Z" transform="translate(-260.32 -256.33)"/><path class="cls-1" d="M351,268.72h6.59l22.57,30.64V273.41c0-2.69-1-4-3.37-4.06l-.58-.05v-.58H385v.58l-.58.05c-2.37.11-3.37,1.37-3.37,4.06V304.1h-1c-8-11-16.14-21.83-24.21-32.74v27.47c0,2.69,1,4,3.38,4.06l.58.05v.58H351v-.58l.58-.05c2.37-.1,3.37-1.37,3.37-4.06V273.41c0-2.69-1-4-3.37-4.06l-.58-.05Z" transform="translate(-260.32 -256.33)"/><path class="cls-1" d="M402,303.52H391.12v-.58l.58-.05c2.38-.1,3.38-1.37,3.38-4.06V273.41c0-2.69-1-4-3.38-4.06l-.58-.05v-.58H402v.58l-.58.05c-2.38.11-3.38,1.37-3.38,4.06v25.42c0,2.69,1,4,3.38,4.06l.58.05Z" transform="translate(-260.32 -256.33)"/><path class="cls-1" d="M442,293.24v7.28c-3.37,2-9.12,3.27-14.34,3.27-11.07,0-18.46-7.07-18.46-17.67s7.39-17.66,18.46-17.66c5.22,0,11,1.31,14.34,3.27-.05.1-.15.21-.15.31l.15-.31V279h-.47c-.21-.58-.53-1.42-.74-2-1.47-4-5-7-8.75-7.49a35.21,35.21,0,0,0-4.43-.32c-9.13,0-15.24,6.75-15.24,16.93s6.11,16.93,15.24,16.93a30.4,30.4,0,0,0,3.16-.16,12.32,12.32,0,0,0,10-7.64l.74-2Zm-.15,6.91.21.37Z" transform="translate(-260.32 -256.33)"/><path class="cls-1" d="M469.58,303l1.37-.06c2.74-.1,3.43-1.37,2.42-4.06l-2.95-7.8-14.08.05-2.48,7c-1.11,3.22-.26,4.75,3,4.85l.84.06v.58H447.16V303l.58-.06c2.43-.1,3.91-1.37,4.86-4.06L463.72,268h.74l12.34,31.64c1.16,2.64,2.37,3.32,4.7,3.32v.58h-12Zm-6.38-31.17-6.54,18.51,13.55.05Z" transform="translate(-260.32 -256.33)"/><path class="cls-1" d="M511.06,269.3l-1.05.05c-2.74.11-3.43,1.32-2.32,4.06l10.86,26.85L527,275c1.26-3.79.26-5.53-3.32-5.64l-.9-.05v-.58h11v.58l-.58.05c-2.37.11-3.85,1.37-4.75,4.06l-10.49,30.91h-.74l-13-31.65c-1.06-2.16-2.32-3.21-4.06-3.32l-.53-.05v-.58h11.44Z" transform="translate(-260.32 -256.33)"/><path class="cls-1" d="M548.55,303.52H537.69v-.58l.58-.05c2.37-.1,3.37-1.37,3.37-4.06V273.41c0-2.69-1-4-3.37-4.06l-.58-.05v-.58h10.86v.58l-.58.05c-2.37.11-3.38,1.37-3.38,4.06v25.42c0,2.69,1,4,3.38,4.06l.58.05Z" transform="translate(-260.32 -256.33)"/><path class="cls-1" d="M553.18,277.42c.21-2.48.53-5.8.74-8.28h0l0-.37H585c.37,2.53.58,6,.8,8.6h-.48L584,274.15c-1.37-3.27-3.38-4.69-6.7-4.69H571v29.37c0,2.69,1,4,3.37,4.06l.58.05v.58H564.15v-.58l.58-.05c2.37-.1,3.38-1.37,3.38-4.06V269.46h-6.44c-3.27,0-5.27,1.42-6.64,4.69l-1.37,3.22Z" transform="translate(-260.32 -256.33)"/><path class="cls-1" d="M609.5,268.46c11.7,0,17.71,8.12,17.71,17.66s-6,17.67-17.71,17.67-17.78-8.12-17.78-17.67S597.79,268.46,609.5,268.46Zm0,34.59c9.59,0,14.5-7.8,14.5-16.93s-4.91-16.93-14.5-16.93-14.56,7.81-14.56,16.93S599.9,303.05,609.5,303.05Zm-1.64-36.18s3.11-5.53,4.75-7.64a15.27,15.27,0,0,1,2-2.9c.43,0,1.48.73,1.48,1.05a13.83,13.83,0,0,1-2.16,2.9c-1.64,2.11-5.8,6.8-5.8,6.8Z" transform="translate(-260.32 -256.33)"/><path class="cls-1" d="M634.43,268.72H650c6.43,0,10.71,3.59,10.71,9,0,4.86-3.85,8.23-9.87,9,1.27,1.48,5.12,5.85,10.39,11.86,3.91,4.43,3.8,4.43,5.22,4.43v.58h-1.1c-3.06,0-3.43-.21-8.12-5.59-4.86-5.48-8.44-9.59-9.81-11.12h-6.12v12c0,2.69,1,4,3.37,4.06l.58.05v.58H634.43v-.58l.58-.05c2.37-.1,3.38-1.37,3.38-4.06V273.41c0-2.69-1-4-3.38-4.06l-.58-.05Zm23.26,9c0-4.95-3.06-8.22-7.65-8.22h-8.7v16.61l7,.05C653.94,286.12,657.69,282.75,657.69,277.68Z" transform="translate(-260.32 -256.33)"/><path class="cls-1" d="M681.36,303.52H670.49v-.58l.58-.05c2.38-.1,3.38-1.37,3.38-4.06V273.41c0-2.69-1-4-3.38-4.06l-.58-.05v-.58h10.87v.58l-.58.05c-2.38.11-3.38,1.37-3.38,4.06v25.42c0,2.69,1,4,3.38,4.06l.58.05Z" transform="translate(-260.32 -256.33)"/><path class="cls-1" d="M707.82,303l1.37-.06c2.75-.1,3.43-1.37,2.43-4.06l-3-7.8-14.08.05-2.48,7c-1.11,3.22-.27,4.75,3,4.85l.85.06v.58H685.41V303l.58-.06c2.43-.1,3.9-1.37,4.85-4.06L702,268h.74l12.34,31.64c1.16,2.64,2.37,3.32,4.69,3.32v.58h-12Zm-6.38-31.17-6.54,18.51,13.56.05Z" transform="translate(-260.32 -256.33)"/><path class="cls-1" d="M260.32,333.25a6.21,6.21,0,0,1,.41-2.28,5.39,5.39,0,0,1,1.15-1.8,5.21,5.21,0,0,1,1.77-1.19,6.23,6.23,0,0,1,4.55,0,5.21,5.21,0,0,1,1.77,1.19,5.39,5.39,0,0,1,1.15,1.8,6,6,0,0,1,.41,2.28,6.1,6.1,0,0,1-.41,2.29,5.54,5.54,0,0,1-1.15,1.81,5.18,5.18,0,0,1-1.77,1.18,6.37,6.37,0,0,1-4.55,0,5.18,5.18,0,0,1-1.77-1.18,5.54,5.54,0,0,1-1.15-1.81A6.3,6.3,0,0,1,260.32,333.25Zm1,0a5.5,5.5,0,0,0,.32,1.88,4.49,4.49,0,0,0,.92,1.52,4.16,4.16,0,0,0,1.45,1,4.68,4.68,0,0,0,1.91.37,4.63,4.63,0,0,0,1.9-.37,4.16,4.16,0,0,0,1.45-1,4.33,4.33,0,0,0,.92-1.52,5.68,5.68,0,0,0,0-3.76,4.33,4.33,0,0,0-.92-1.52,4.16,4.16,0,0,0-1.45-1,4.63,4.63,0,0,0-1.9-.37,4.68,4.68,0,0,0-1.91.37,4.16,4.16,0,0,0-1.45,1,4.49,4.49,0,0,0-.92,1.52A5.5,5.5,0,0,0,261.33,333.25Z" transform="translate(-260.32 -256.33)"/><path class="cls-1" d="M279.82,327.83h3.36a7.28,7.28,0,0,1,2.39.34,5.37,5.37,0,0,1,1.63.88,4.76,4.76,0,0,1,1,1.19,5.82,5.82,0,0,1,.55,1.25,6.47,6.47,0,0,1,.22,1.08c0,.32.05.55.05.68s0,.36-.05.68a6.47,6.47,0,0,1-.22,1.08,5.82,5.82,0,0,1-.55,1.25,4.76,4.76,0,0,1-1,1.19,5.37,5.37,0,0,1-1.63.88,7.28,7.28,0,0,1-2.39.34h-3.36Zm1,9.92h2.09a7.55,7.55,0,0,0,2-.26,4.72,4.72,0,0,0,1.63-.82,3.93,3.93,0,0,0,1.09-1.41,5.37,5.37,0,0,0,0-4,3.93,3.93,0,0,0-1.09-1.41,4.72,4.72,0,0,0-1.63-.82,7.55,7.55,0,0,0-2-.26h-2.09Z" transform="translate(-260.32 -256.33)"/><path class="cls-1" d="M296.77,333.25a6,6,0,0,1,.41-2.28,5.39,5.39,0,0,1,1.15-1.8A5.21,5.21,0,0,1,300.1,328a6.23,6.23,0,0,1,4.55,0,5.21,5.21,0,0,1,1.77,1.19,5.39,5.39,0,0,1,1.15,1.8,6.21,6.21,0,0,1,.41,2.28,6.3,6.3,0,0,1-.41,2.29,5.54,5.54,0,0,1-1.15,1.81,5.18,5.18,0,0,1-1.77,1.18,6.37,6.37,0,0,1-4.55,0,5.18,5.18,0,0,1-1.77-1.18,5.54,5.54,0,0,1-1.15-1.81A6.1,6.1,0,0,1,296.77,333.25Zm1,0a5.5,5.5,0,0,0,.32,1.88,4.33,4.33,0,0,0,.92,1.52,4.16,4.16,0,0,0,1.45,1,4.63,4.63,0,0,0,1.9.37,4.68,4.68,0,0,0,1.91-.37,4.16,4.16,0,0,0,1.45-1,4.49,4.49,0,0,0,.92-1.52,5.68,5.68,0,0,0,0-3.76,4.49,4.49,0,0,0-.92-1.52,4.16,4.16,0,0,0-1.45-1,4.68,4.68,0,0,0-1.91-.37,4.63,4.63,0,0,0-1.9.37,4.16,4.16,0,0,0-1.45,1,4.33,4.33,0,0,0-.92,1.52A5.5,5.5,0,0,0,297.78,333.25Z" transform="translate(-260.32 -256.33)"/><path class="cls-1" d="M316.41,327.83h1.3l6.6,9.5h0v-9.5h1v10.84h-1.3l-6.6-9.5h0v9.5h-1Z" transform="translate(-260.32 -256.33)"/><path class="cls-1" d="M336.89,328.75h-3.71v-.92h8.43v.92H337.9v9.92h-1Z" transform="translate(-260.32 -256.33)"/><path class="cls-1" d="M348.73,333.25a6,6,0,0,1,.42-2.28,5.24,5.24,0,0,1,2.92-3,5.74,5.74,0,0,1,2.27-.43,5.83,5.83,0,0,1,2.28.43,5.27,5.27,0,0,1,1.76,1.19,5.1,5.1,0,0,1,1.15,1.8,6,6,0,0,1,.42,2.28,6.1,6.1,0,0,1-.42,2.29,5.18,5.18,0,0,1-2.91,3,6,6,0,0,1-2.28.42,5.92,5.92,0,0,1-2.27-.42,5.18,5.18,0,0,1-1.77-1.18,5.38,5.38,0,0,1-1.15-1.81A6.1,6.1,0,0,1,348.73,333.25Zm1,0a5.27,5.27,0,0,0,.33,1.88,4.33,4.33,0,0,0,.92,1.52,4.12,4.12,0,0,0,1.44,1,5.11,5.11,0,0,0,3.82,0,4.25,4.25,0,0,0,1.45-1,4.65,4.65,0,0,0,.92-1.52,5.68,5.68,0,0,0,0-3.76,4.65,4.65,0,0,0-.92-1.52,4.25,4.25,0,0,0-1.45-1,5.11,5.11,0,0,0-3.82,0,4.12,4.12,0,0,0-1.44,1,4.33,4.33,0,0,0-.92,1.52A5.27,5.27,0,0,0,349.74,333.25Z" transform="translate(-260.32 -256.33)"/><path class="cls-1" d="M368.37,327.83h1v9.92h5.05v.92h-6.07Z" transform="translate(-260.32 -256.33)"/><path class="cls-1" d="M381.49,333.25a6.21,6.21,0,0,1,.41-2.28,5.39,5.39,0,0,1,1.15-1.8,5.21,5.21,0,0,1,1.77-1.19,6.23,6.23,0,0,1,4.55,0,5.21,5.21,0,0,1,1.77,1.19,5.39,5.39,0,0,1,1.15,1.8,6.21,6.21,0,0,1,.41,2.28,6.3,6.3,0,0,1-.41,2.29,5.54,5.54,0,0,1-1.15,1.81,5.18,5.18,0,0,1-1.77,1.18,6.37,6.37,0,0,1-4.55,0,5.18,5.18,0,0,1-1.77-1.18,5.54,5.54,0,0,1-1.15-1.81A6.3,6.3,0,0,1,381.49,333.25Zm1,0a5.5,5.5,0,0,0,.32,1.88,4.49,4.49,0,0,0,.92,1.52,4.16,4.16,0,0,0,1.45,1,4.68,4.68,0,0,0,1.91.37,4.63,4.63,0,0,0,1.9-.37,4.16,4.16,0,0,0,1.45-1,4.33,4.33,0,0,0,.92-1.52,5.68,5.68,0,0,0,0-3.76,4.33,4.33,0,0,0-.92-1.52,4.16,4.16,0,0,0-1.45-1,4.63,4.63,0,0,0-1.9-.37,4.68,4.68,0,0,0-1.91.37,4.16,4.16,0,0,0-1.45,1,4.49,4.49,0,0,0-.92,1.52A5.5,5.5,0,0,0,382.5,333.25Z" transform="translate(-260.32 -256.33)"/><path class="cls-1" d="M410.08,338a7.1,7.1,0,0,1-2,.76A10.27,10.27,0,0,1,406,339a6,6,0,0,1-2.27-.42,5.18,5.18,0,0,1-1.77-1.18,5.38,5.38,0,0,1-1.15-1.81,6.1,6.1,0,0,1-.42-2.29,6,6,0,0,1,.42-2.28,5.24,5.24,0,0,1,2.92-3,5.78,5.78,0,0,1,2.27-.43,5.25,5.25,0,0,1,3.91,1.5l-.74.77a2.91,2.91,0,0,0-.6-.55,4.16,4.16,0,0,0-.78-.42,5.3,5.3,0,0,0-.88-.28,4.09,4.09,0,0,0-.91-.1,4.72,4.72,0,0,0-1.91.37,4.12,4.12,0,0,0-1.44,1,4.33,4.33,0,0,0-.92,1.52,5.68,5.68,0,0,0,0,3.76,4.33,4.33,0,0,0,.92,1.52,4.12,4.12,0,0,0,1.44,1A4.72,4.72,0,0,0,406,338a9.45,9.45,0,0,0,1.64-.14,4.19,4.19,0,0,0,1.39-.5v-3.65h-2.6v-.92h3.62Z" transform="translate(-260.32 -256.33)"/><path class="cls-1" d="M419.21,327.83h1v10.84h-1Z" transform="translate(-260.32 -256.33)"/><path class="cls-1" d="M432.67,327.83h1.05l4.56,10.84h-1.13L436,335.79h-5.75L429,338.67h-1.06Zm.48,1.1-2.53,5.94h5Z" transform="translate(-260.32 -256.33)"/><path class="cls-1" d="M465.08,337a4.62,4.62,0,0,1-1.81,1.52,5.35,5.35,0,0,1-2.22.46,6,6,0,0,1-2.28-.42,5.18,5.18,0,0,1-1.77-1.18,5.54,5.54,0,0,1-1.15-1.81,6.3,6.3,0,0,1-.41-2.29,6.21,6.21,0,0,1,.41-2.28,5.39,5.39,0,0,1,1.15-1.8,5.21,5.21,0,0,1,1.77-1.19,5.83,5.83,0,0,1,2.28-.43,5.43,5.43,0,0,1,2.06.39,4.11,4.11,0,0,1,1.68,1.31l-.83.69a3,3,0,0,0-1.3-1.12,4,4,0,0,0-1.61-.35,4.68,4.68,0,0,0-1.91.37,4.16,4.16,0,0,0-1.45,1,4.49,4.49,0,0,0-.92,1.52,5.68,5.68,0,0,0,0,3.76,4.49,4.49,0,0,0,.92,1.52,4.16,4.16,0,0,0,1.45,1,4.68,4.68,0,0,0,1.91.37,3.64,3.64,0,0,0,.85-.1,4.14,4.14,0,0,0,1.68-.83,3.74,3.74,0,0,0,.67-.75Z" transform="translate(-260.32 -256.33)"/><path class="cls-1" d="M472.38,333.25a6,6,0,0,1,.42-2.28,5.24,5.24,0,0,1,2.92-3,6.23,6.23,0,0,1,4.55,0,5.21,5.21,0,0,1,1.77,1.19,5.39,5.39,0,0,1,1.15,1.8,6.21,6.21,0,0,1,.41,2.28,6.3,6.3,0,0,1-.41,2.29,5.54,5.54,0,0,1-1.15,1.81,5.18,5.18,0,0,1-1.77,1.18,6.37,6.37,0,0,1-4.55,0,5.18,5.18,0,0,1-1.77-1.18,5.38,5.38,0,0,1-1.15-1.81A6.1,6.1,0,0,1,472.38,333.25Zm1,0a5.27,5.27,0,0,0,.32,1.88,4.33,4.33,0,0,0,.92,1.52,4.12,4.12,0,0,0,1.44,1,5.11,5.11,0,0,0,3.82,0,4.16,4.16,0,0,0,1.45-1,4.65,4.65,0,0,0,.92-1.52,5.68,5.68,0,0,0,0-3.76,4.65,4.65,0,0,0-.92-1.52,4.16,4.16,0,0,0-1.45-1,5.11,5.11,0,0,0-3.82,0,4.12,4.12,0,0,0-1.44,1,4.33,4.33,0,0,0-.92,1.52A5.27,5.27,0,0,0,473.4,333.25Z" transform="translate(-260.32 -256.33)"/><path class="cls-1" d="M492,327.83h1.3l6.6,9.5h0v-9.5h1v10.84h-1.3l-6.6-9.5h0v9.5h-1Z" transform="translate(-260.32 -256.33)"/><path class="cls-1" d="M519,337a4.59,4.59,0,0,1-1.8,1.52A5.35,5.35,0,0,1,515,339a6,6,0,0,1-2.28-.42,5.18,5.18,0,0,1-1.77-1.18,5.54,5.54,0,0,1-1.15-1.81,6.3,6.3,0,0,1-.41-2.29,6.21,6.21,0,0,1,.41-2.28,5.39,5.39,0,0,1,1.15-1.8,5.21,5.21,0,0,1,1.77-1.19,5.83,5.83,0,0,1,2.28-.43,5.43,5.43,0,0,1,2.06.39,4.15,4.15,0,0,1,1.67,1.31l-.82.69a3,3,0,0,0-1.3-1.12,4,4,0,0,0-1.61-.35,4.68,4.68,0,0,0-1.91.37,4.16,4.16,0,0,0-1.45,1,4.49,4.49,0,0,0-.92,1.52,5.68,5.68,0,0,0,0,3.76,4.49,4.49,0,0,0,.92,1.52,4.16,4.16,0,0,0,1.45,1A4.68,4.68,0,0,0,515,338a3.64,3.64,0,0,0,.85-.1,3.93,3.93,0,0,0,.87-.31,3.65,3.65,0,0,0,.8-.52,3.5,3.5,0,0,0,.68-.75Z" transform="translate(-260.32 -256.33)"/><path class="cls-1" d="M527.05,327.83h6.63v.92h-5.62v3.86h5.27v.92h-5.27v4.22h5.87v.92h-6.88Z" transform="translate(-260.32 -256.33)"/><path class="cls-1" d="M542.29,327.83h1v10.84h-1Z" transform="translate(-260.32 -256.33)"/><path class="cls-1" d="M554.84,328.75h-3.71v-.92h8.43v.92h-3.71v9.92h-1Z" transform="translate(-260.32 -256.33)"/><path class="cls-1" d="M566.68,333.25a6.21,6.21,0,0,1,.41-2.28,5.39,5.39,0,0,1,1.15-1.8A5.21,5.21,0,0,1,570,328a6.23,6.23,0,0,1,4.55,0,5.24,5.24,0,0,1,2.92,3,6,6,0,0,1,.42,2.28,6.1,6.1,0,0,1-.42,2.29,5.38,5.38,0,0,1-1.15,1.81,5.18,5.18,0,0,1-1.77,1.18,6.37,6.37,0,0,1-4.55,0,5.18,5.18,0,0,1-1.77-1.18,5.54,5.54,0,0,1-1.15-1.81A6.3,6.3,0,0,1,566.68,333.25Zm1,0a5.5,5.5,0,0,0,.32,1.88,4.65,4.65,0,0,0,.92,1.52,4.16,4.16,0,0,0,1.45,1,5.11,5.11,0,0,0,3.82,0,4.21,4.21,0,0,0,1.44-1,4.33,4.33,0,0,0,.92-1.52,5.68,5.68,0,0,0,0-3.76,4.33,4.33,0,0,0-.92-1.52,4.21,4.21,0,0,0-1.44-1,5.11,5.11,0,0,0-3.82,0,4.16,4.16,0,0,0-1.45,1,4.65,4.65,0,0,0-.92,1.52A5.5,5.5,0,0,0,567.69,333.25Z" transform="translate(-260.32 -256.33)"/></svg>